<svg xmlns="http://www.w3.org/2000/svg" viewBox="0 0 320 480" fill="none" aria-hidden="true">
  <g transform="translate(320 0) scale(-1 1)" stroke="#E82E76" stroke-linecap="round" stroke-linejoin="round">
    <path stroke-width="1.15" d="M18 8c34 6 58 28 62 62 4 34-12 66-42 84"/>
    <path stroke-width="1.15" d="M4 36c22-10 48-6 64 14 16 20 14 48-4 66"/>
    <path stroke-width="1.15" d="M10 78c18-18 44-20 66-4 22 16 24 44 8 68"/>
    <path stroke-width="1.15" d="M28 118c12-24 38-32 62-22 24 10 34 36 22 62"/>
    <path stroke-width="1.15" d="M52 156c8-22 30-32 52-26 22 6 32 28 24 52"/>
    <path stroke-width="1.15" d="M78 188c4-18 24-26 42-18 18 8 24 26 16 44"/>
    <path stroke-width="1.05" d="M96 92c14-10 28-8 36 4 8 12 4 28-8 36"/>
    <path stroke-width="1.05" d="M118 68c12-14 28-12 38 0 10 12 6 28-6 36"/>
    <path stroke-width="1.05" d="M142 48c10-12 26-10 34 2 8 12 4 26-8 32"/>
    <path stroke-width="1.05" d="M164 34c8-10 22-8 28 2 6 10 2 22-8 26"/>
    <path stroke-width="1.05" d="M82 118c10-8 20-6 26 4"/>
    <path stroke-width="1.05" d="M64 146c-8 8-6 18 4 24"/>
    <path stroke-width="1.05" d="M108 152c8 6 10 16 4 24"/>
    <path stroke-width="1.05" d="M132 132c6 8 4 18-4 24"/>
    <path stroke-width="0.95" d="M46 92c8-6 16-4 20 4"/>
    <path stroke-width="0.95" d="M72 74c6-8 14-8 20 0"/>
    <path stroke-width="0.95" d="M98 58c4-8 12-8 18-2"/>
    <path stroke-width="0.95" d="M124 46c4-6 10-6 14 0"/>
    <path stroke-width="0.95" d="M58 132c-4 8-2 16 6 20"/>
    <path stroke-width="0.95" d="M88 168c6 4 8 12 2 18"/>
    <path stroke-width="0.95" d="M118 176c8 2 14-2 16-10"/>
    <path stroke-width="0.85" d="M104 108c-10 2-16 10-14 20"/>
    <path stroke-width="0.85" d="M128 96c8 6 8 16 0 22"/>
    <path stroke-width="0.85" d="M148 82c6 4 6 12 0 16"/>
    <circle cx="108" cy="118" r="4.2" stroke-width="1.05"/>
    <path stroke-width="0.95" d="M108 122v18c-2 14-8 28-18 40"/>
    <path stroke-width="0.85" d="M92 158c-8 4-14 2-18-6"/>
    <path stroke-width="0.85" d="M124 164c10 2 16-2 20-12"/>
    <path stroke-width="0.85" d="M98 188c6 8 14 12 22 10"/>
    <path stroke-width="0.75" d="M88 104l8 10"/>
    <path stroke-width="0.75" d="M102 96l10 8"/>
    <path stroke-width="0.75" d="M118 88l8 10"/>
    <path stroke-width="0.75" d="M134 78l6 8"/>
    <path stroke-width="0.75" d="M96 132l6 8"/>
    <path stroke-width="0.75" d="M112 142l8 6"/>
    <path stroke-width="0.75" d="M128 150l6 8"/>
  </g>
</svg>
